<svg xmlns="http://www.w3.org/2000/svg" viewBox="0 0 1024 1024">
  <defs>
    <linearGradient id="g" x1="120" y1="70" x2="900" y2="940" gradientUnits="userSpaceOnUse">
      <stop stop-color="#60A5FA"/>
      <stop offset="0.48" stop-color="#2563EB"/>
      <stop offset="1" stop-color="#1D4ED8"/>
    </linearGradient>
    <filter id="s" x="-20%" y="-20%" width="140%" height="140%">
      <feDropShadow dx="0" dy="26" stdDeviation="30" flood-color="#2563EB" flood-opacity=".26"/>
    </filter>
  </defs>
  <rect x="96" y="96" width="832" height="832" rx="230" fill="url(#g)" filter="url(#s)"/>
  <path d="M205 314h93l45 262 82-160h68l82 160 45-262h92l-84 396h-94L459 544 384 710h-94z" fill="white"/>
  <path d="M680 314h190v82h-101v82h83v79h-83v153h-89z" fill="white"/>
  <path d="M805 171l20 46 47 20-47 21-20 46-21-46-47-21 47-20z" fill="#DBEAFE"/>
</svg>
